<svg width="125" height="42" viewBox="0 0 125 42" fill="none" xmlns="http://www.w3.org/2000/svg">
<g clip-path="url(#clip0)">
<path d="M125 0H0V41.2621H125V0Z" fill="white"/>
<path d="M80.3603 16.4072C80.2259 16.911 80.1083 17.4148 79.9739 17.9354C78.5794 23.5277 77.1849 29.1368 75.7904 34.7291C75.74 34.9306 75.656 35.0146 75.4544 35.0146C73.9927 34.9978 72.5142 34.9978 71.0525 35.0146C70.8509 35.0146 70.7669 34.9474 70.7165 34.7627C69.1708 28.7169 67.6419 22.688 66.0962 16.6591C66.0794 16.5751 66.0458 16.5079 65.9786 16.4407V16.7094C65.9786 22.688 65.9786 28.6498 65.9786 34.6283C65.9786 34.981 65.9786 34.981 65.6258 34.981H60.1318V8.81641H60.4007C63.6097 8.81641 66.8019 8.81641 70.0109 8.81641C70.2125 8.81641 70.2965 8.86679 70.3469 9.06831C71.5062 13.5186 72.6486 17.9522 73.8247 22.4025C73.8415 22.4697 73.8583 22.5537 73.9087 22.6712C73.9591 22.5369 73.9759 22.4361 74.0095 22.3521C75.1184 17.9522 76.2105 13.5522 77.3193 9.16907C77.3865 8.91717 77.4705 8.81641 77.7394 8.8332C80.9316 8.84999 84.107 8.8332 87.2992 8.8332H87.652V34.981H80.4107V16.4072H80.3603Z" fill="black"/>
<path d="M16.8855 18.4726H22.8163V8.83301H30.5112V34.9136H22.7659V24.8038H16.8351V34.9136H9.08984V8.83301H16.8855V18.4726Z" fill="black"/>
<path d="M115.676 21.9657C115.71 24.4008 115.172 26.8023 114.113 28.9855C112.669 32.0923 109.846 34.3259 106.503 35.0312C103.445 35.7869 100.219 35.3503 97.4803 33.822C95.6658 32.7808 94.1705 31.2526 93.2129 29.3885C92.2384 27.558 91.6672 25.526 91.516 23.4603C91.2975 20.9917 91.6 18.4894 92.4232 16.1383C93.1961 13.8375 94.6914 11.8391 96.6739 10.4452C98.0012 9.53835 99.5301 8.93378 101.126 8.66508C102.386 8.42997 103.68 8.39638 104.974 8.53073C109.577 9.05133 112.837 11.4528 114.601 15.8696C115.172 17.297 115.508 18.8085 115.609 20.3367C115.625 20.8741 115.642 21.4115 115.676 21.9657ZM99.7485 22.1504C99.8325 23.158 99.8829 24.1489 100.001 25.1565C100.118 26.2145 100.471 27.2221 101.042 28.0954C101.916 29.3381 103.562 29.758 104.923 29.0862C105.696 28.6496 106.284 27.961 106.57 27.1214C106.973 26.0802 107.208 24.9718 107.259 23.8466C107.376 22.3519 107.343 20.8405 107.158 19.3627C107.057 18.3047 106.771 17.2635 106.301 16.2894C105.898 15.2986 104.99 14.5933 103.915 14.4421C102.957 14.291 102 14.6604 101.361 15.3826C100.773 16.1047 100.353 16.9444 100.169 17.8512C99.8661 19.2619 99.7149 20.7062 99.7485 22.1504Z" fill="black"/>
<path d="M42.5575 8.89999V9.26945C42.5575 14.7442 42.5575 20.2022 42.5575 25.6769C42.5743 26.1135 42.6079 26.5502 42.6583 26.97C42.7423 27.8601 43.3471 28.6158 44.204 28.8677C45.3968 29.3211 46.7073 29.2708 47.8498 28.7166C48.7067 28.2967 49.2611 27.4234 49.2611 26.4662C49.2947 26.1303 49.2947 25.7777 49.2947 25.4418C49.2947 20.0342 49.2947 14.6266 49.2947 9.21907V8.84961H49.5971C51.4452 8.84961 53.2766 8.84961 55.1247 8.84961C55.3599 8.84961 55.4271 8.91678 55.4271 9.1519C55.4271 14.6434 55.4271 20.135 55.4103 25.6265C55.4439 26.8525 55.3263 28.0952 55.0743 29.2875C54.6542 31.0341 53.6126 32.5623 52.1341 33.5699C50.79 34.5104 49.2275 35.0982 47.5978 35.2661C46.5057 35.4172 45.4136 35.4508 44.3048 35.4005C42.3727 35.3501 40.4573 34.8966 38.6932 34.0738C36.9459 33.2677 35.6186 31.773 35.0474 29.9425C34.745 28.9517 34.6106 27.9273 34.6106 26.9028C34.5938 22.9395 34.5938 18.9762 34.5938 15.0129C34.5938 13.0648 34.5938 11.1168 34.5938 9.18548C34.5938 8.98396 34.6274 8.89999 34.8458 8.89999C37.3323 8.89999 39.8189 8.89999 42.2886 8.89999C42.3895 8.8832 42.4567 8.8832 42.5575 8.89999Z" fill="black"/>
</g>
<defs>
<clipPath id="clip0">
<rect width="125" height="41.2621" fill="white"/>
</clipPath>
</defs>
</svg>
