<svg width="16" height="15" viewBox="0 0 16 15" fill="none" xmlns="http://www.w3.org/2000/svg">
<g clip-path="url(#clip0)">
<path d="M6.70932 12.1489C6.43089 12.1489 6.15869 12.2326 5.92719 12.3893C5.69568 12.546 5.51526 12.7688 5.40871 13.0294C5.30216 13.29 5.27427 13.5768 5.32859 13.8535C5.38291 14.1302 5.517 14.3844 5.71388 14.5838C5.91076 14.7833 6.1616 14.9192 6.43468 14.9742C6.70776 15.0292 6.9908 15.001 7.24804 14.8931C7.50527 14.7851 7.72514 14.6023 7.87983 14.3677C8.03451 14.1332 8.11709 13.8574 8.11709 13.5753C8.1167 13.1971 7.96826 12.8345 7.70434 12.5671C7.44041 12.2997 7.08256 12.1493 6.70932 12.1489V12.1489ZM6.70932 14.1991C6.5864 14.1991 6.46622 14.1622 6.36401 14.093C6.26181 14.0238 6.18215 13.9254 6.13511 13.8104C6.08807 13.6953 6.07578 13.5687 6.09976 13.4466C6.12374 13.3244 6.18292 13.2122 6.26984 13.1242C6.35676 13.0361 6.4675 12.9761 6.58806 12.9518C6.70862 12.9275 6.83359 12.94 6.94715 12.9876C7.06071 13.0353 7.15778 13.116 7.22607 13.2196C7.29436 13.3231 7.33081 13.4449 7.33081 13.5694C7.33138 13.6525 7.31574 13.735 7.28478 13.8119C7.25382 13.8889 7.20815 13.959 7.1504 14.018C7.09265 14.0771 7.02395 14.124 6.94825 14.1561C6.87256 14.1881 6.79137 14.2048 6.70932 14.205V14.1991Z" fill="white"/>
<path d="M11.6452 12.1489C11.3668 12.1489 11.0946 12.2326 10.8631 12.3893C10.6316 12.546 10.4511 12.7688 10.3446 13.0294C10.238 13.29 10.2101 13.5768 10.2645 13.8535C10.3188 14.1302 10.4529 14.3844 10.6498 14.5838C10.8466 14.7833 11.0974 14.9192 11.3705 14.9742C11.6436 15.0292 11.9267 15.001 12.1839 14.8931C12.4411 14.7851 12.661 14.6023 12.8157 14.3677C12.9704 14.1332 13.053 13.8574 13.053 13.5753C13.0526 13.1971 12.9041 12.8345 12.6402 12.5671C12.3763 12.2997 12.0184 12.1493 11.6452 12.1489V12.1489ZM11.6452 14.1991C11.5223 14.1991 11.4021 14.1622 11.2999 14.093C11.1977 14.0238 11.118 13.9254 11.071 13.8104C11.0239 13.6953 11.0116 13.5687 11.0356 13.4466C11.0596 13.3244 11.1188 13.2122 11.2057 13.1242C11.2926 13.0361 11.4034 12.9761 11.5239 12.9518C11.6445 12.9275 11.7695 12.94 11.883 12.9876C11.9966 13.0353 12.0936 13.116 12.1619 13.2196C12.2302 13.3231 12.2667 13.4449 12.2667 13.5694C12.2674 13.6526 12.2519 13.7351 12.221 13.8122C12.1901 13.8892 12.1445 13.9594 12.0867 14.0185C12.0289 14.0776 11.9601 14.1245 11.8844 14.1565C11.8086 14.1885 11.7273 14.205 11.6452 14.205V14.1991Z" fill="white"/>
<path d="M11.992 4.64355H6.36243C6.25816 4.64355 6.15816 4.68552 6.08443 4.76022C6.01071 4.83492 5.96929 4.93622 5.96929 5.04186C5.96929 5.1475 6.01071 5.24882 6.08443 5.32352C6.15816 5.39822 6.25816 5.44018 6.36243 5.44018H11.992C12.0963 5.44018 12.1963 5.39822 12.27 5.32352C12.3438 5.24882 12.3852 5.1475 12.3852 5.04186C12.3852 4.93622 12.3438 4.83492 12.27 4.76022C12.1963 4.68552 12.0963 4.64355 11.992 4.64355Z" fill="white"/>
<path d="M11.6856 6.70996H6.66884C6.56458 6.70996 6.46458 6.75193 6.39085 6.82663C6.31712 6.90132 6.2757 7.00265 6.2757 7.10829C6.2757 7.21393 6.31712 7.31523 6.39085 7.38993C6.46458 7.46462 6.56458 7.50659 6.66884 7.50659H11.6856C11.7899 7.50659 11.8899 7.46462 11.9636 7.38993C12.0374 7.31523 12.0788 7.21393 12.0788 7.10829C12.0788 7.00265 12.0374 6.90132 11.9636 6.82663C11.8899 6.75193 11.7899 6.70996 11.6856 6.70996Z" fill="white"/>
<path d="M15.8224 2.8683C15.7489 2.77661 15.6561 2.70273 15.5509 2.65206C15.4456 2.60138 15.3304 2.57519 15.2139 2.57541H2.97756L2.73041 1.35995C2.70493 1.23485 2.65014 1.1178 2.57065 1.01866C2.49116 0.919514 2.38931 0.841191 2.27368 0.790292L0.549379 0.033189C0.453547 -0.00875682 0.345193 -0.0104117 0.248155 0.0285859C0.151118 0.0675835 0.0733443 0.144039 0.0319447 0.241136C-0.00945496 0.338233 -0.0110897 0.448017 0.0274002 0.546335C0.06589 0.644653 0.141352 0.723451 0.237184 0.765396L1.96148 1.52397L3.86212 10.8728C3.89916 11.0519 3.99571 11.2127 4.13565 11.3283C4.27559 11.444 4.45045 11.5075 4.63104 11.5083H14.0417C14.146 11.5083 14.246 11.4664 14.3197 11.3917C14.3934 11.317 14.4348 11.2157 14.4348 11.11C14.4348 11.0044 14.3934 10.9031 14.3197 10.8284C14.246 10.7537 14.146 10.7117 14.0417 10.7117H4.62526L4.394 9.57385H14.1154C14.296 9.57305 14.4709 9.50951 14.6108 9.39385C14.7507 9.27818 14.8473 9.11739 14.8843 8.9383L15.9828 3.53461C16.007 3.41846 16.0052 3.29828 15.9774 3.18295C15.9497 3.06762 15.8967 2.96009 15.8224 2.8683V2.8683ZM14.1154 8.77575H4.23791L3.13944 3.37206H15.2139L14.1154 8.77575Z" fill="white"/>
</g>
<defs>
<clipPath id="clip0">
<rect width="16" height="15" fill="white"/>
</clipPath>
</defs>
</svg>
