<svg width="21" height="21" viewBox="0 0 21 21" fill="none" xmlns="http://www.w3.org/2000/svg">
<g clip-path="url(#clip0)">
<path d="M8.80596 17.0083C8.44052 17.0083 8.08326 17.1254 7.77941 17.3448C7.47556 17.5643 7.23876 17.8761 7.09891 18.241C6.95907 18.6059 6.92246 19.0074 6.99375 19.3947C7.06505 19.7821 7.24104 20.1379 7.49944 20.4172C7.75785 20.6964 8.08707 20.8866 8.44549 20.9637C8.80391 21.0407 9.17541 21.0012 9.51303 20.8501C9.85065 20.6989 10.1392 20.443 10.3423 20.1146C10.5453 19.7862 10.6537 19.4001 10.6537 19.0052C10.6532 18.4757 10.4583 17.9681 10.1119 17.5937C9.76552 17.2194 9.29584 17.0088 8.80596 17.0083ZM8.80596 19.8785C8.64462 19.8785 8.48689 19.8268 8.35275 19.7299C8.2186 19.6331 8.11405 19.4954 8.05231 19.3343C7.99057 19.1732 7.97444 18.996 8.00591 18.825C8.03739 18.654 8.11507 18.4969 8.22915 18.3736C8.34323 18.2503 8.48858 18.1663 8.64681 18.1323C8.80505 18.0983 8.96906 18.1158 9.11811 18.1825C9.26717 18.2492 9.39457 18.3622 9.4842 18.5072C9.57383 18.6522 9.62166 18.8226 9.62166 18.997C9.62241 19.1134 9.60189 19.2287 9.56125 19.3365C9.52062 19.4443 9.46068 19.5423 9.38488 19.625C9.30909 19.7077 9.21891 19.7734 9.11956 19.8183C9.02021 19.8632 8.91365 19.8865 8.80596 19.8867V19.8785Z" fill="#4F4F4F"/>
<path d="M15.2842 17.0083C14.9188 17.0083 14.5615 17.1254 14.2577 17.3448C13.9538 17.5643 13.717 17.8761 13.5772 18.241C13.4373 18.6059 13.4007 19.0074 13.472 19.3947C13.5433 19.7821 13.7193 20.1379 13.9777 20.4172C14.2361 20.6964 14.5653 20.8866 14.9237 20.9637C15.2822 21.0407 15.6537 21.0012 15.9913 20.8501C16.3289 20.6989 16.6175 20.443 16.8205 20.1146C17.0236 19.7862 17.1319 19.4001 17.1319 19.0052C17.1314 18.4757 16.9366 17.9681 16.5902 17.5937C16.2438 17.2194 15.7741 17.0088 15.2842 17.0083ZM15.2842 19.8785C15.1229 19.8785 14.9651 19.8268 14.831 19.7299C14.6969 19.6331 14.5923 19.4954 14.5306 19.3343C14.4689 19.1732 14.4527 18.996 14.4842 18.825C14.5156 18.654 14.5933 18.4969 14.7074 18.3736C14.8215 18.2503 14.9669 18.1663 15.1251 18.1323C15.2833 18.0983 15.4473 18.1158 15.5964 18.1825C15.7454 18.2492 15.8728 18.3622 15.9624 18.5072C16.0521 18.6522 16.0999 18.8226 16.0999 18.997C16.1009 19.1134 16.0806 19.2289 16.04 19.3368C15.9995 19.4447 15.9396 19.5429 15.8637 19.6256C15.7879 19.7084 15.6976 19.774 15.5981 19.8189C15.4987 19.8637 15.392 19.8867 15.2842 19.8867V19.8785Z" fill="#4F4F4F"/>
<path d="M15.7396 6.5011H8.35071C8.21386 6.5011 8.08261 6.55985 7.98584 6.66443C7.88908 6.76901 7.83472 6.91082 7.83472 7.05872C7.83472 7.20662 7.88908 7.34847 7.98584 7.45305C8.08261 7.55763 8.21386 7.61638 8.35071 7.61638H15.7396C15.8764 7.61638 16.0077 7.55763 16.1044 7.45305C16.2012 7.34847 16.2556 7.20662 16.2556 7.05872C16.2556 6.91082 16.2012 6.76901 16.1044 6.66443C16.0077 6.55985 15.8764 6.5011 15.7396 6.5011Z" fill="#4F4F4F"/>
<path d="M15.3373 9.39392H8.75281C8.61596 9.39392 8.48471 9.45267 8.38794 9.55725C8.29118 9.66183 8.23682 9.80368 8.23682 9.95158C8.23682 10.0995 8.29118 10.2413 8.38794 10.3459C8.48471 10.4504 8.61596 10.5092 8.75281 10.5092H15.3373C15.4742 10.5092 15.6054 10.4504 15.7022 10.3459C15.799 10.2413 15.8533 10.0995 15.8533 9.95158C15.8533 9.80368 15.799 9.66183 15.7022 9.55725C15.6054 9.45267 15.4742 9.39392 15.3373 9.39392Z" fill="#4F4F4F"/>
<path d="M20.767 4.01554C20.6706 3.88719 20.5489 3.78375 20.4107 3.71281C20.2725 3.64186 20.1214 3.6052 19.9684 3.6055H3.90824L3.58385 1.90386C3.55041 1.72872 3.47849 1.56485 3.37417 1.42605C3.26984 1.28725 3.13615 1.17759 2.98439 1.10634L0.72125 0.0463913C0.59547 -0.0123328 0.453256 -0.0146497 0.325894 0.039947C0.198532 0.0945436 0.0964546 0.201582 0.0421176 0.337517C-0.0122194 0.473453 -0.014365 0.627151 0.0361529 0.764796C0.0866709 0.902441 0.185714 1.01276 0.311494 1.07148L2.57464 2.13348L5.06922 15.2218C5.11784 15.4726 5.24456 15.6977 5.42823 15.8596C5.6119 16.0215 5.8414 16.1105 6.07843 16.1116H18.4299C18.5668 16.1116 18.698 16.0529 18.7948 15.9483C18.8916 15.8437 18.9459 15.7019 18.9459 15.554C18.9459 15.4061 18.8916 15.2642 18.7948 15.1596C18.698 15.0551 18.5668 14.9963 18.4299 14.9963H6.07084L5.76732 13.4033H18.5267C18.7637 13.4022 18.9932 13.3132 19.1769 13.1513C19.3605 12.9894 19.4873 12.7643 19.5359 12.5135L20.9776 4.94838C21.0094 4.78577 21.007 4.61752 20.9706 4.45606C20.9341 4.2946 20.8646 4.14405 20.767 4.01554ZM18.5267 12.286H5.56244L4.12071 4.7208H19.9684L18.5267 12.286Z" fill="#4F4F4F"/>
</g>
<defs>
<clipPath id="clip0">
<rect width="21" height="21" fill="white"/>
</clipPath>
</defs>
</svg>
