<?xml version="1.0" encoding="utf-8"?>
<!-- Generator: Adobe Illustrator 24.0.2, SVG Export Plug-In . SVG Version: 6.00 Build 0)  -->
<svg version="1.1" id="Layer_1" xmlns="http://www.w3.org/2000/svg" xmlns:xlink="http://www.w3.org/1999/xlink" x="0px" y="0px"
	 viewBox="0 0 22.8 22.8" style="enable-background:new 0 0 22.8 22.8;" xml:space="preserve">
<style type="text/css">
	.st0{fill:#6CD000;}
</style>
<path class="st0" d="M22.3,3.5c-0.3-0.3-0.9-0.3-1.2,0l-10,10L7.3,9.7C7,9.4,6.5,9.4,6.2,9.7c-0.3,0.3-0.3,0.9,0,1.2l4.4,4.4
	c0.3,0.3,0.9,0.3,1.2,0L22.3,4.7C22.7,4.4,22.7,3.9,22.3,3.5z"/>
<g>
	<path class="st0" d="M11.4,22.8C5.1,22.8,0,17.7,0,11.4S5.1,0,11.4,0c2.4,0,4.8,0.8,6.7,2.2c0.3,0.2,0.4,0.7,0.2,1
		c-0.2,0.3-0.7,0.4-1,0.2c-1.7-1.2-3.7-1.9-5.8-1.9c-5.5,0-9.9,4.4-9.9,9.9s4.4,9.9,9.9,9.9s9.9-4.4,9.9-9.9c0-0.8-0.1-1.5-0.3-2.3
		c-0.1-0.4,0.2-0.8,0.6-0.9c0.4-0.1,0.8,0.2,0.9,0.6c0.2,0.9,0.3,1.7,0.3,2.6C22.8,17.7,17.7,22.8,11.4,22.8z"/>
</g>
</svg>
