<?xml version="1.0" encoding="utf-8"?>
<!-- Generator: Adobe Illustrator 24.0.2, SVG Export Plug-In . SVG Version: 6.00 Build 0)  -->
<svg version="1.1" id="Layer_1" xmlns="http://www.w3.org/2000/svg" xmlns:xlink="http://www.w3.org/1999/xlink" x="0px" y="0px"
	 viewBox="0 0 744 246" style="enable-background:new 0 0 744 246;" xml:space="preserve">
<style type="text/css">
	.st0{fill:#EE090C;}
	.st1{fill:#FFFFFF;}
</style>
<rect id="Rectangle_754" x="0.3" y="0.3" class="st0" width="744" height="245.7"/>
<path id="Path_211" class="st1" d="M478.7,98c-0.8,3-1.5,6-2.3,9.1c-8.3,33.3-16.6,66.7-24.9,100c-0.3,1.2-0.8,1.7-2,1.7
	c-8.7-0.1-17.5-0.1-26.2,0c-1.2,0-1.7-0.4-2-1.5c-9.2-36-18.3-71.9-27.5-107.8c-0.1-0.5-0.3-0.9-0.7-1.3v1.6c0,35.6,0,71.1,0,106.7
	c0,2.1,0,2.1-2.1,2.1h-32.7V52.8h1.6c19.1,0,38.1,0,57.2,0c1.2,0,1.7,0.3,2,1.5c6.9,26.5,13.7,52.9,20.7,79.4
	c0.1,0.4,0.2,0.9,0.5,1.6c0.3-0.8,0.4-1.4,0.6-1.9c6.6-26.2,13.1-52.4,19.7-78.5c0.4-1.5,0.9-2.1,2.5-2c19,0.1,37.9,0,56.9,0h2.1
	v155.7H479V98L478.7,98z"/>
<path id="Path_212" class="st1" d="M100.8,110.3h35.3V53h45.8v155.3h-46.1V148h-35.3v60.2H54.5V53h46.4V110.3z"/>
<path id="Path_213" class="st1" d="M688.8,131.2c0.2,14.5-3,28.8-9.3,41.8c-8.6,18.5-25.4,31.8-45.3,36c-18.2,4.5-37.4,1.9-53.7-7.2
	c-10.8-6.2-19.7-15.3-25.4-26.4c-5.8-10.9-9.2-23-10.1-35.3c-1.3-14.7,0.5-29.6,5.4-43.6c4.6-13.7,13.5-25.6,25.3-33.9
	c7.9-5.4,17-9,26.5-10.6c7.5-1.4,15.2-1.6,22.9-0.8c27.4,3.1,46.8,17.4,57.3,43.7c3.4,8.5,5.4,17.5,6,26.6
	C688.5,124.6,688.7,127.9,688.8,131.2z M594,132.2c0.5,6,0.8,11.9,1.5,17.9c0.7,6.3,2.8,12.3,6.2,17.5c5.2,7.4,15,9.9,23.1,5.9
	c4.6-2.6,8.1-6.7,9.8-11.7c2.4-6.2,3.8-12.8,4.1-19.5c0.7-8.9,0.5-17.9-0.6-26.7c-0.6-6.3-2.3-12.5-5.1-18.3
	c-2.4-5.9-7.8-10.1-14.2-11c-5.7-0.9-11.4,1.3-15.2,5.6c-3.5,4.3-6,9.3-7.1,14.7C594.7,115,593.9,123.6,594,132.2L594,132.2z"/>
<path id="Path_214" class="st1" d="M253.7,53.3v2.2c0,32.6,0,65.1,0,97.7c0.1,2.6,0.3,5.2,0.6,7.7c0.5,5.3,4.1,9.8,9.2,11.3
	c7.1,2.7,14.9,2.4,21.7-0.9c5.1-2.5,8.4-7.7,8.4-13.4c0.2-2,0.2-4.1,0.2-6.1c0-32.2,0-64.4,0-96.6v-2.2h1.8c11,0,21.9,0,32.9,0
	c1.4,0,1.8,0.4,1.8,1.8c0,32.7,0,65.4-0.1,98.1c0.2,7.3-0.5,14.7-2,21.8c-2.5,10.4-8.7,19.5-17.5,25.5c-8,5.6-17.3,9.1-27,10.1
	c-6.5,0.9-13,1.1-19.6,0.8c-11.5-0.3-22.9-3-33.4-7.9c-10.4-4.8-18.3-13.7-21.7-24.6c-1.8-5.9-2.6-12-2.6-18.1
	c-0.1-23.6-0.1-47.2-0.1-70.8c0-11.6,0-23.2,0-34.7c0-1.2,0.2-1.7,1.5-1.7c14.8,0,29.6,0,44.3,0C252.6,53.2,253,53.3,253.7,53.3z"/>
</svg>
