<svg width="17" height="17" viewBox="0 0 17 17" fill="none" xmlns="http://www.w3.org/2000/svg">
<path d="M8.5 14.6951C8.65906 14.6951 8.78814 14.5663 8.78814 14.407V4.89849C8.78814 4.73915 8.65906 4.61035 8.5 4.61035C8.34095 4.61035 8.21187 4.73915 8.21187 4.89849V14.407C8.21187 14.5663 8.34095 14.6951 8.5 14.6951Z" fill="#828282"/>
<path d="M5.61864 14.6951C5.77769 14.6951 5.90678 14.5663 5.90678 14.407V4.89849C5.90678 4.73915 5.77769 4.61035 5.61864 4.61035C5.45959 4.61035 5.33051 4.73915 5.33051 4.89849V14.407C5.33051 14.5663 5.45959 14.6951 5.61864 14.6951Z" fill="#828282"/>
<path d="M11.3814 14.6951C11.5404 14.6951 11.6695 14.5663 11.6695 14.407V4.89849C11.6695 4.73915 11.5404 4.61035 11.3814 4.61035C11.2223 4.61035 11.0932 4.73915 11.0932 4.89849V14.407C11.0932 14.5663 11.2223 14.6951 11.3814 14.6951Z" fill="#828282"/>
<path d="M15.1271 1.72881H11.0805C11.0489 1.36864 10.9379 0.761254 10.5582 0.371407C10.3179 0.125051 10.013 0 9.65226 0H6.77119C6.41044 0 6.1056 0.125051 5.86529 0.371407C5.48553 0.761254 5.37459 1.36864 5.3429 1.72881H1.87288C1.71383 1.72881 1.58475 1.85761 1.58475 2.01695C1.58475 2.17629 1.71383 2.30508 1.87288 2.30508H2.46097L3.01275 15.5654C3.02341 16.0615 3.33229 17 4.42692 17H12.5731C13.6677 17 13.9766 16.0615 13.987 15.5714L14.539 2.30508H15.1271C15.2862 2.30508 15.4153 2.17629 15.4153 2.01695C15.4153 1.85761 15.2862 1.72881 15.1271 1.72881ZM6.27905 0.772492C6.40814 0.640525 6.56921 0.576271 6.77119 0.576271H9.65226C9.85424 0.576271 10.0153 0.640525 10.1444 0.772492C10.3763 1.00963 10.4694 1.42685 10.5017 1.72881H5.92205C5.95432 1.42685 6.04739 1.00963 6.27905 0.772492ZM13.411 15.5533C13.4093 15.6423 13.3695 16.4237 12.5731 16.4237H4.42692C3.63915 16.4237 3.5919 15.6409 3.58873 15.5472L3.03753 2.30508H13.9622L13.411 15.5533Z" fill="#828282"/>
</svg>
