<?xml version="1.0" encoding="utf-8"?>
<!-- Generator: Adobe Illustrator 24.0.2, SVG Export Plug-In . SVG Version: 6.00 Build 0)  -->
<svg version="1.1" id="Layer_1" xmlns="http://www.w3.org/2000/svg" xmlns:xlink="http://www.w3.org/1999/xlink" x="0px" y="0px"
	 viewBox="0 0 297 243" style="enable-background:new 0 0 297 243;" xml:space="preserve">
<style type="text/css">
	.st0{fill:none;}
	.st1{fill:#FF5F00;}
	.st2{fill:#EB001B;}
	.st3{fill:#F79E1B;}
</style>
<rect x="-805.3" y="-618.8" class="st0" width="1907.8" height="1474.2"/>
<g>
	<rect x="-28.2" y="-26.8" class="st0" width="353.6" height="290"/>
	<path d="M59.3,226.9v-14.5c0-5.5-3.4-9.2-9.2-9.2c-2.9,0-6,1-8.2,4.1c-1.7-2.6-4.1-4.1-7.7-4.1c-2.4,0-4.8,0.7-6.7,3.4v-2.9h-5.1
		v23.1h5.1v-12.8c0-4.1,2.2-6,5.5-6s5.1,2.2,5.1,6v12.8h5.1v-12.8c0-4.1,2.4-6,5.5-6c3.4,0,5.1,2.2,5.1,6v12.8H59.3z M134.2,203.8
		H126v-7h-5.1v7h-4.6v4.6h4.6v10.6c0,5.3,2.2,8.4,7.9,8.4c2.2,0,4.6-0.7,6.3-1.7l-1.4-4.3c-1.4,1-3.1,1.2-4.3,1.2
		c-2.4,0-3.4-1.4-3.4-3.9v-10.4h8.2V203.8z M177,203.3c-2.9,0-4.8,1.4-6,3.4v-2.9H166v23.1h5.1v-13c0-3.9,1.7-6,4.8-6
		c1,0,2.2,0.2,3.1,0.5l1.4-4.8C179.5,203.3,178,203.3,177,203.3z M112.2,205.7c-2.4-1.7-5.8-2.4-9.4-2.4c-5.8,0-9.6,2.9-9.6,7.5
		c0,3.9,2.9,6,7.9,6.7l2.4,0.2c2.6,0.5,4.1,1.2,4.1,2.4c0,1.7-1.9,2.9-5.3,2.9s-6-1.2-7.7-2.4l-2.4,3.9c2.6,1.9,6.3,2.9,9.9,2.9
		c6.7,0,10.6-3.1,10.6-7.5c0-4.1-3.1-6.3-7.9-7l-2.4-0.2c-2.2-0.2-3.9-0.7-3.9-2.2c0-1.7,1.7-2.6,4.3-2.6c2.9,0,5.8,1.2,7.2,1.9
		L112.2,205.7L112.2,205.7z M246.7,203.3c-2.9,0-4.8,1.4-6,3.4v-2.9h-5.1v23.1h5.1v-13c0-3.9,1.7-6,4.8-6c1,0,2.2,0.2,3.1,0.5
		l1.4-4.8C249.1,203.3,247.6,203.3,246.7,203.3z M182.1,215.3c0,7,4.8,12,12.3,12c3.4,0,5.8-0.7,8.2-2.6l-2.4-4.1
		c-1.9,1.4-3.9,2.2-6,2.2c-4.1,0-7-2.9-7-7.5c0-4.3,2.9-7.2,7-7.5c2.2,0,4.1,0.7,6,2.2l2.4-4.1c-2.4-1.9-4.8-2.6-8.2-2.6
		C186.9,203.3,182.1,208.3,182.1,215.3L182.1,215.3z M228.8,215.3v-11.6h-5.1v2.9c-1.7-2.2-4.1-3.4-7.2-3.4c-6.5,0-11.6,5.1-11.6,12
		c0,7,5.1,12,11.6,12c3.4,0,5.8-1.2,7.2-3.4v2.9h5.1V215.3L228.8,215.3z M210.3,215.3c0-4.1,2.6-7.5,7-7.5c4.1,0,7,3.1,7,7.5
		c0,4.1-2.9,7.5-7,7.5C212.9,222.6,210.3,219.4,210.3,215.3z M149.8,203.3c-6.7,0-11.6,4.8-11.6,12s4.8,12,11.8,12
		c3.4,0,6.7-1,9.4-3.1l-2.4-3.6c-1.9,1.4-4.3,2.4-6.7,2.4c-3.1,0-6.3-1.4-7-5.5h17.1v-1.9C160.7,208.1,156.3,203.3,149.8,203.3
		L149.8,203.3z M149.8,207.6c3.1,0,5.3,1.9,5.8,5.5h-12C144,210,146.2,207.6,149.8,207.6z M275.3,215.3v-20.7h-5.1v12
		c-1.7-2.2-4.1-3.4-7.2-3.4c-6.5,0-11.6,5.1-11.6,12c0,7,5.1,12,11.6,12c3.4,0,5.8-1.2,7.2-3.4v2.9h5.1V215.3L275.3,215.3z
		 M256.8,215.3c0-4.1,2.6-7.5,7-7.5c4.1,0,7,3.1,7,7.5c0,4.1-2.9,7.5-7,7.5C259.4,222.6,256.8,219.4,256.8,215.3z M87.7,215.3v-11.6
		h-5.1v2.9c-1.7-2.2-4.1-3.4-7.2-3.4c-6.5,0-11.6,5.1-11.6,12c0,7,5.1,12,11.6,12c3.4,0,5.8-1.2,7.2-3.4v2.9h5.1V215.3L87.7,215.3z
		 M68.9,215.3c0-4.1,2.6-7.5,7-7.5c4.1,0,7,3.1,7,7.5c0,4.1-2.9,7.5-7,7.5C71.5,222.6,68.9,219.4,68.9,215.3z"/>
	<rect x="110.6" y="28.2" class="st1" width="75.9" height="136.3"/>
	<path class="st2" d="M115.4,96.3c0-27.7,13-52.3,33-68.2C133.7,16.6,115.1,9.6,94.9,9.6C47,9.6,8.2,48.4,8.2,96.3
		s38.8,86.7,86.7,86.7c20.2,0,38.8-7,53.5-18.5C128.4,148.9,115.4,124,115.4,96.3z"/>
	<path class="st3" d="M288.8,96.3c0,47.9-38.8,86.7-86.7,86.7c-20.2,0-38.8-7-53.5-18.5c20.2-15.9,33-40.5,33-68.2s-13-52.3-33-68.2
		c14.7-11.6,33.2-18.5,53.5-18.5C250,9.6,288.8,48.6,288.8,96.3z"/>
</g>
</svg>
