<svg width="34" height="33" viewBox="0 0 34 33" fill="none" xmlns="http://www.w3.org/2000/svg">
<path d="M33 16.5C33 25.0325 25.8649 32 17 32C8.13509 32 1 25.0325 1 16.5C1 7.96752 8.13509 1 17 1C25.8649 1 33 7.96752 33 16.5Z" fill="white" stroke="#EC121E" stroke-width="2"/>
<g clip-path="url(#clip0)">
<path d="M24.9167 10.1665H9.08332C7.935 10.1665 7 11.0548 7 12.1457V20.854C7 21.9449 7.935 22.8332 9.08332 22.8332H24.9166C26.065 22.8332 27 21.9449 27 20.854V12.1457C27 11.0548 26.065 10.1665 24.9167 10.1665ZM26.1667 20.854C26.1667 21.5087 25.6059 22.0415 24.9167 22.0415H9.08332C8.39414 22.0415 7.83332 21.5087 7.83332 20.854V12.1457C7.83332 11.491 8.39414 10.9582 9.08332 10.9582H24.9166C25.6058 10.9582 26.1666 11.491 26.1666 12.1457V20.854H26.1667Z" fill="#EC121E"/>
<path d="M26.5833 12.5415H7.41668C7.18668 12.5415 7 12.7188 7 12.9373V15.3123C7 15.5308 7.18668 15.7082 7.41668 15.7082H26.5834C26.8134 15.7082 27 15.5308 27 15.3123V12.9373C27 12.7188 26.8133 12.5415 26.5833 12.5415ZM26.1667 14.9165H7.83332V13.3332H26.1666V14.9165H26.1667Z" fill="#EC121E"/>
<path d="M14.9167 18.0835H9.91668C9.68668 18.0835 9.5 18.2608 9.5 18.4793C9.5 18.6978 9.68668 18.8751 9.91668 18.8751H14.9167C15.1467 18.8751 15.3334 18.6978 15.3334 18.4793C15.3334 18.2608 15.1467 18.0835 14.9167 18.0835Z" fill="#EC121E"/>
<path d="M14.9167 19.6665H9.91668C9.68668 19.6665 9.5 19.8438 9.5 20.0623C9.5 20.2808 9.68668 20.4582 9.91668 20.4582H14.9167C15.1467 20.4582 15.3334 20.2808 15.3334 20.0623C15.3333 19.8438 15.1467 19.6665 14.9167 19.6665Z" fill="#EC121E"/>
<path d="M23.2499 17.2915H22.4166C21.7274 17.2915 21.1666 17.8243 21.1666 18.479V19.2707C21.1666 19.9254 21.7274 20.4582 22.4166 20.4582H23.2499C23.9391 20.4582 24.4999 19.9254 24.4999 19.2707V18.479C24.4999 17.8243 23.9391 17.2915 23.2499 17.2915ZM23.6666 19.2707C23.6666 19.4892 23.4799 19.6665 23.2499 19.6665H22.4166C22.1866 19.6665 21.9999 19.4892 21.9999 19.2707V18.479C21.9999 18.2605 22.1866 18.0832 22.4166 18.0832H23.2499C23.4799 18.0832 23.6666 18.2605 23.6666 18.479V19.2707Z" fill="#EC121E"/>
</g>
<defs>
<clipPath id="clip0">
<rect x="7" y="7" width="20" height="19" fill="white"/>
</clipPath>
</defs>
</svg>
