<svg width="34" height="34" viewBox="0 0 34 34" fill="none" xmlns="http://www.w3.org/2000/svg">
<circle cx="17" cy="17" r="16" fill="#EC121E" stroke="#EC121E" stroke-width="2"/>
<path d="M16.9276 17.7766C16.9483 17.7766 16.969 17.7766 16.9939 17.7766C17.0021 17.7766 17.0104 17.7766 17.0187 17.7766C17.0311 17.7766 17.0477 17.7766 17.0601 17.7766C18.2736 17.7559 19.2552 17.3293 19.98 16.5134C21.5745 14.7159 21.3095 11.6345 21.2805 11.3404C21.1769 9.13295 20.1332 8.07683 19.2718 7.58397C18.6298 7.21537 17.8802 7.01657 17.0436 7H17.0146C17.0104 7 17.0021 7 16.998 7H16.9731C16.5134 7 15.6105 7.07455 14.7449 7.56741C13.8752 8.06026 12.8149 9.11638 12.7114 11.3404C12.6824 11.6345 12.4173 14.7159 14.0119 16.5134C14.7325 17.3293 15.7141 17.7559 16.9276 17.7766ZM13.8172 11.444C13.8172 11.4316 13.8213 11.4191 13.8213 11.4109C13.958 8.44129 16.0661 8.12239 16.969 8.12239H16.9856C16.9939 8.12239 17.0063 8.12239 17.0187 8.12239C18.1369 8.14724 20.038 8.60282 20.1664 11.4109C20.1664 11.4233 20.1664 11.4357 20.1705 11.444C20.1746 11.473 20.4646 14.2893 19.1475 15.772C18.6257 16.3601 17.9299 16.65 17.0146 16.6583C17.0063 16.6583 17.0021 16.6583 16.9939 16.6583C16.9856 16.6583 16.9814 16.6583 16.9731 16.6583C16.062 16.65 15.362 16.3601 14.8443 15.772C13.5314 14.2976 13.8131 11.4688 13.8172 11.444Z" fill="#F2F2F2"/>
<path d="M25.5049 22.8872C25.5049 22.8831 25.5049 22.8789 25.5049 22.8748C25.5049 22.8416 25.5007 22.8085 25.5007 22.7712C25.4759 21.9512 25.422 20.0336 23.6246 19.4206C23.6121 19.4165 23.5956 19.4124 23.5832 19.4082C21.7153 18.9319 20.1622 17.8551 20.1456 17.8427C19.893 17.6646 19.5451 17.7267 19.367 17.9793C19.1889 18.232 19.251 18.5799 19.5036 18.758C19.574 18.8077 21.2224 19.9549 23.285 20.485C24.25 20.8288 24.3576 21.8601 24.3866 22.8044C24.3866 22.8416 24.3866 22.8748 24.3908 22.9079C24.3949 23.2807 24.3701 23.8563 24.3038 24.1877C23.6329 24.5687 21.0029 25.8858 17.0021 25.8858C13.0178 25.8858 10.3713 24.5646 9.69622 24.1835C9.62996 23.8522 9.60096 23.2765 9.60925 22.9038C9.60925 22.8706 9.61339 22.8375 9.61339 22.8002C9.64238 21.8559 9.75006 20.8247 10.7151 20.4809C12.7776 19.9508 14.426 18.7994 14.4964 18.7538C14.749 18.5757 14.8112 18.2278 14.6331 17.9752C14.455 17.7226 14.1071 17.6604 13.8544 17.8385C13.8379 17.851 12.293 18.9278 10.4169 19.4041C10.4003 19.4082 10.3879 19.4124 10.3755 19.4165C8.57798 20.0336 8.52414 21.9512 8.49929 22.7671C8.49929 22.8044 8.49929 22.8375 8.49515 22.8706C8.49515 22.8748 8.49515 22.8789 8.49515 22.8831C8.491 23.0984 8.48686 24.2042 8.70637 24.7592C8.74779 24.8669 8.82234 24.958 8.92174 25.0202C9.04598 25.103 12.0238 26.9999 17.0062 26.9999C21.9886 26.9999 24.9665 25.0988 25.0907 25.0202C25.186 24.958 25.2647 24.8669 25.3061 24.7592C25.5132 24.2084 25.509 23.1026 25.5049 22.8872Z" fill="#F2F2F2"/>
</svg>
