<svg width="34" height="33" viewBox="0 0 34 33" fill="none" xmlns="http://www.w3.org/2000/svg">
<path d="M33 16.5C33 25.0325 25.8649 32 17 32C8.13509 32 1 25.0325 1 16.5C1 7.96752 8.13509 1 17 1C25.8649 1 33 7.96752 33 16.5Z" fill="white" stroke="#EC121E" stroke-width="2"/>
<g clip-path="url(#clip0)">
<path d="M26.7364 9.8017C26.385 9.43068 25.8151 9.43068 25.4636 9.8017L14.6811 21.1834L10.5364 16.8085C10.185 16.4375 9.61515 16.4375 9.26362 16.8085C8.91213 17.1795 8.91213 17.781 9.26362 18.152L14.0447 23.1986C14.396 23.5695 14.9662 23.5693 15.3175 23.1986L26.7364 11.1452C27.0879 10.7742 27.0879 10.1727 26.7364 9.8017Z" fill="#EC121E"/>
</g>
<defs>
<clipPath id="clip0">
<rect x="9" y="7" width="18" height="19" fill="white"/>
</clipPath>
</defs>
</svg>
