<svg width="34" height="34" viewBox="0 0 34 34" fill="none" xmlns="http://www.w3.org/2000/svg">
<circle cx="17" cy="17" r="16" fill="white" stroke="#EC121E" stroke-width="2"/>
<path d="M15.1286 22.7686C14.8328 22.7686 14.5436 22.8634 14.2976 23.041C14.0516 23.2186 13.86 23.4711 13.7467 23.7664C13.6335 24.0618 13.6039 24.3868 13.6616 24.7004C13.7193 25.014 13.8618 25.302 14.071 25.5281C14.2802 25.7542 14.5467 25.9082 14.8368 25.9705C15.127 26.0329 15.4277 26.0009 15.701 25.8786C15.9743 25.7562 16.2079 25.549 16.3723 25.2832C16.5367 25.0173 16.6244 24.7048 16.6244 24.3851C16.624 23.9565 16.4663 23.5455 16.1858 23.2425C15.9054 22.9394 15.5252 22.769 15.1286 22.7686ZM15.1286 25.0921C14.998 25.0921 14.8703 25.0502 14.7618 24.9718C14.6532 24.8934 14.5685 24.7819 14.5185 24.6515C14.4686 24.5211 14.4555 24.3776 14.481 24.2392C14.5065 24.1008 14.5693 23.9736 14.6617 23.8738C14.754 23.774 14.8717 23.706 14.9998 23.6785C15.1279 23.6509 15.2607 23.6651 15.3813 23.7191C15.502 23.7731 15.6051 23.8646 15.6777 23.982C15.7502 24.0993 15.789 24.2373 15.789 24.3784C15.7896 24.4727 15.773 24.5661 15.7401 24.6533C15.7072 24.7406 15.6586 24.8199 15.5973 24.8869C15.5359 24.9538 15.4629 25.007 15.3825 25.0433C15.3021 25.0797 15.2158 25.0985 15.1286 25.0987V25.0921Z" fill="#EC121E"/>
<path d="M20.373 22.7686C20.0772 22.7686 19.788 22.8634 19.542 23.041C19.296 23.2186 19.1043 23.4711 18.9911 23.7664C18.8779 24.0618 18.8483 24.3868 18.906 24.7004C18.9637 25.014 19.1062 25.302 19.3154 25.5281C19.5246 25.7542 19.791 25.9082 20.0812 25.9705C20.3713 26.0329 20.6721 26.0009 20.9454 25.8786C21.2187 25.7562 21.4523 25.549 21.6167 25.2832C21.781 25.0173 21.8688 24.7048 21.8688 24.3851C21.8684 23.9565 21.7106 23.5455 21.4302 23.2425C21.1498 22.9394 20.7696 22.769 20.373 22.7686ZM20.373 25.0921C20.2424 25.0921 20.1147 25.0502 20.0061 24.9718C19.8975 24.8934 19.8129 24.7819 19.7629 24.6515C19.713 24.5211 19.6999 24.3776 19.7253 24.2392C19.7508 24.1008 19.8137 23.9736 19.9061 23.8738C19.9984 23.774 20.1161 23.706 20.2442 23.6785C20.3723 23.6509 20.5051 23.6651 20.6257 23.7191C20.7464 23.7731 20.8495 23.8646 20.9221 23.982C20.9946 24.0993 21.0334 24.2373 21.0334 24.3784C21.0342 24.4727 21.0177 24.5662 20.9849 24.6536C20.952 24.7409 20.9035 24.8204 20.8421 24.8874C20.7807 24.9543 20.7076 25.0075 20.6271 25.0438C20.5466 25.08 20.4603 25.0987 20.373 25.0987V25.0921Z" fill="#EC121E"/>
<path d="M24.8113 12.2507C24.7333 12.1468 24.6347 12.063 24.5228 12.0056C24.411 11.9482 24.2886 11.9185 24.1648 11.9187H11.1637L10.9011 10.5412C10.874 10.3994 10.8158 10.2668 10.7314 10.1544C10.6469 10.0421 10.5387 9.95328 10.4158 9.8956L8.58376 9.03755C8.48194 8.99001 8.36681 8.98813 8.26371 9.03233C8.16061 9.07653 8.07797 9.16318 8.03399 9.27322C7.99 9.38327 7.98826 9.50769 8.02916 9.61911C8.07005 9.73054 8.15023 9.81985 8.25205 9.86738L10.0841 10.7271L12.1035 21.3224C12.1429 21.5254 12.2455 21.7076 12.3942 21.8387C12.5429 21.9698 12.7286 22.0418 12.9205 22.0427H22.9194C23.0301 22.0427 23.1364 21.9952 23.2147 21.9105C23.293 21.8258 23.3371 21.711 23.3371 21.5913C23.3371 21.4716 23.293 21.3567 23.2147 21.2721C23.1364 21.1874 23.0301 21.1399 22.9194 21.1399H12.9144L12.6687 19.8503H22.9977C23.1896 19.8494 23.3753 19.7774 23.524 19.6463C23.6727 19.5152 23.7753 19.333 23.8147 19.13L24.9818 13.0058C25.0075 12.8742 25.0056 12.738 24.9761 12.6073C24.9466 12.4766 24.8903 12.3547 24.8113 12.2507ZM22.9977 18.9458H12.5028L11.3357 12.8216H24.1648L22.9977 18.9458Z" fill="#EC121E"/>
</svg>
